<mxfile host="app.diagrams.net" modified="2024-01-29T06:40:01.717Z" agent="Mozilla/5.0 (Windows NT 10.0; Win64; x64) AppleWebKit/537.36 (KHTML, like Gecko) Chrome/120.0.0.0 Safari/537.36" etag="t6MXc8X35ao79_Cubkb4" version="23.0.2" type="device">
  <diagram id="1e3qTzKw5sa4Een_o3Lu" name="第 1 页">
    <mxGraphModel dx="768" dy="498" grid="1" gridSize="10" guides="1" tooltips="1" connect="1" arrows="1" fold="1" page="1" pageScale="1" pageWidth="827" pageHeight="1169" math="0" shadow="0">
      <root>
        <mxCell id="0" />
        <mxCell id="1" parent="0" />
        <mxCell id="Rax3kxEUYJWD1s0g4nNq-1" value="" style="ellipse;whiteSpace=wrap;html=1;aspect=fixed;" parent="1" vertex="1">
          <mxGeometry x="140" y="106" width="20" height="20" as="geometry" />
        </mxCell>
        <mxCell id="Rax3kxEUYJWD1s0g4nNq-6" value="" style="ellipse;whiteSpace=wrap;html=1;aspect=fixed;" parent="1" vertex="1">
          <mxGeometry x="80" y="146" width="20" height="20" as="geometry" />
        </mxCell>
        <mxCell id="Rax3kxEUYJWD1s0g4nNq-7" value="" style="ellipse;whiteSpace=wrap;html=1;aspect=fixed;" parent="1" vertex="1">
          <mxGeometry x="200" y="146" width="20" height="20" as="geometry" />
        </mxCell>
        <mxCell id="Rax3kxEUYJWD1s0g4nNq-8" value="" style="ellipse;whiteSpace=wrap;html=1;aspect=fixed;" parent="1" vertex="1">
          <mxGeometry x="260" y="186" width="20" height="20" as="geometry" />
        </mxCell>
        <mxCell id="Rax3kxEUYJWD1s0g4nNq-9" value="" style="ellipse;whiteSpace=wrap;html=1;aspect=fixed;" parent="1" vertex="1">
          <mxGeometry x="320" y="226" width="20" height="20" as="geometry" />
        </mxCell>
        <mxCell id="Rax3kxEUYJWD1s0g4nNq-10" value="" style="ellipse;whiteSpace=wrap;html=1;aspect=fixed;" parent="1" vertex="1">
          <mxGeometry x="380" y="266" width="20" height="20" as="geometry" />
        </mxCell>
        <mxCell id="Rax3kxEUYJWD1s0g4nNq-11" value="" style="endArrow=none;html=1;rounded=0;" parent="1" source="Rax3kxEUYJWD1s0g4nNq-6" target="Rax3kxEUYJWD1s0g4nNq-1" edge="1">
          <mxGeometry width="50" height="50" relative="1" as="geometry">
            <mxPoint x="140" y="286" as="sourcePoint" />
            <mxPoint x="190" y="236" as="targetPoint" />
          </mxGeometry>
        </mxCell>
        <mxCell id="Rax3kxEUYJWD1s0g4nNq-12" value="" style="endArrow=none;html=1;rounded=0;" parent="1" source="Rax3kxEUYJWD1s0g4nNq-1" target="Rax3kxEUYJWD1s0g4nNq-7" edge="1">
          <mxGeometry width="50" height="50" relative="1" as="geometry">
            <mxPoint x="140" y="286" as="sourcePoint" />
            <mxPoint x="190" y="236" as="targetPoint" />
          </mxGeometry>
        </mxCell>
        <mxCell id="Rax3kxEUYJWD1s0g4nNq-13" value="" style="endArrow=none;html=1;rounded=0;" parent="1" source="Rax3kxEUYJWD1s0g4nNq-7" target="Rax3kxEUYJWD1s0g4nNq-8" edge="1">
          <mxGeometry width="50" height="50" relative="1" as="geometry">
            <mxPoint x="140" y="286" as="sourcePoint" />
            <mxPoint x="190" y="236" as="targetPoint" />
          </mxGeometry>
        </mxCell>
        <mxCell id="Rax3kxEUYJWD1s0g4nNq-14" value="" style="endArrow=none;html=1;rounded=0;" parent="1" source="Rax3kxEUYJWD1s0g4nNq-9" target="Rax3kxEUYJWD1s0g4nNq-8" edge="1">
          <mxGeometry width="50" height="50" relative="1" as="geometry">
            <mxPoint x="140" y="286" as="sourcePoint" />
            <mxPoint x="190" y="236" as="targetPoint" />
          </mxGeometry>
        </mxCell>
        <mxCell id="Rax3kxEUYJWD1s0g4nNq-15" value="" style="endArrow=none;html=1;rounded=0;" parent="1" source="Rax3kxEUYJWD1s0g4nNq-10" target="Rax3kxEUYJWD1s0g4nNq-9" edge="1">
          <mxGeometry width="50" height="50" relative="1" as="geometry">
            <mxPoint x="140" y="286" as="sourcePoint" />
            <mxPoint x="190" y="236" as="targetPoint" />
          </mxGeometry>
        </mxCell>
        <mxCell id="Rax3kxEUYJWD1s0g4nNq-16" value="&lt;font style=&quot;font-size: 20px;&quot; face=&quot;Times New Roman&quot;&gt;A&lt;sub&gt;1&lt;/sub&gt;&lt;/font&gt;" style="text;html=1;align=center;verticalAlign=middle;resizable=0;points=[];autosize=1;strokeColor=none;fillColor=none;" parent="1" vertex="1">
          <mxGeometry x="127" y="74" width="50" height="40" as="geometry" />
        </mxCell>
        <mxCell id="Rax3kxEUYJWD1s0g4nNq-17" value="&lt;font style=&quot;font-size: 20px;&quot; face=&quot;Times New Roman&quot;&gt;A&lt;sub&gt;2&lt;/sub&gt;&lt;/font&gt;" style="text;html=1;align=center;verticalAlign=middle;resizable=0;points=[];autosize=1;strokeColor=none;fillColor=none;" parent="1" vertex="1">
          <mxGeometry x="188" y="114" width="50" height="40" as="geometry" />
        </mxCell>
        <mxCell id="Rax3kxEUYJWD1s0g4nNq-18" value="&lt;font style=&quot;font-size: 20px;&quot; face=&quot;Times New Roman&quot;&gt;A&lt;sub&gt;3&lt;/sub&gt;&lt;/font&gt;" style="text;html=1;align=center;verticalAlign=middle;resizable=0;points=[];autosize=1;strokeColor=none;fillColor=none;" parent="1" vertex="1">
          <mxGeometry x="248" y="154" width="50" height="40" as="geometry" />
        </mxCell>
        <mxCell id="Rax3kxEUYJWD1s0g4nNq-19" value="&lt;font face=&quot;Times New Roman&quot;&gt;&lt;span style=&quot;font-size: 20px;&quot;&gt;B&lt;sub&gt;2&lt;/sub&gt;&lt;/span&gt;&lt;/font&gt;" style="text;html=1;align=center;verticalAlign=middle;resizable=0;points=[];autosize=1;strokeColor=none;fillColor=none;" parent="1" vertex="1">
          <mxGeometry x="309" y="194" width="50" height="40" as="geometry" />
        </mxCell>
        <mxCell id="Rax3kxEUYJWD1s0g4nNq-20" value="&lt;font face=&quot;Times New Roman&quot;&gt;&lt;span style=&quot;font-size: 20px;&quot;&gt;B&lt;sub&gt;3&lt;/sub&gt;&lt;/span&gt;&lt;/font&gt;" style="text;html=1;align=center;verticalAlign=middle;resizable=0;points=[];autosize=1;strokeColor=none;fillColor=none;" parent="1" vertex="1">
          <mxGeometry x="365" y="234" width="50" height="40" as="geometry" />
        </mxCell>
        <mxCell id="Rax3kxEUYJWD1s0g4nNq-21" value="&lt;font face=&quot;Times New Roman&quot;&gt;&lt;span style=&quot;font-size: 20px;&quot;&gt;B&lt;sub&gt;1&lt;/sub&gt;&lt;/span&gt;&lt;/font&gt;" style="text;html=1;align=center;verticalAlign=middle;resizable=0;points=[];autosize=1;strokeColor=none;fillColor=none;" parent="1" vertex="1">
          <mxGeometry x="67" y="114" width="50" height="40" as="geometry" />
        </mxCell>
        <mxCell id="Rax3kxEUYJWD1s0g4nNq-22" value="&lt;font face=&quot;Times New Roman&quot;&gt;&lt;span style=&quot;font-size: 20px;&quot;&gt;1&lt;/span&gt;&lt;/font&gt;" style="text;html=1;align=center;verticalAlign=middle;resizable=0;points=[];autosize=1;strokeColor=none;fillColor=none;" parent="1" vertex="1">
          <mxGeometry x="165" y="106" width="30" height="40" as="geometry" />
        </mxCell>
        <mxCell id="Rax3kxEUYJWD1s0g4nNq-23" value="&lt;font face=&quot;Times New Roman&quot;&gt;&lt;span style=&quot;font-size: 20px;&quot;&gt;1&lt;/span&gt;&lt;/font&gt;" style="text;html=1;align=center;verticalAlign=middle;resizable=0;points=[];autosize=1;strokeColor=none;fillColor=none;" parent="1" vertex="1">
          <mxGeometry x="225" y="146" width="30" height="40" as="geometry" />
        </mxCell>
        <mxCell id="Rax3kxEUYJWD1s0g4nNq-24" value="&lt;font face=&quot;Times New Roman&quot;&gt;&lt;span style=&quot;font-size: 20px;&quot;&gt;1&lt;/span&gt;&lt;/font&gt;" style="text;html=1;align=center;verticalAlign=middle;resizable=0;points=[];autosize=1;strokeColor=none;fillColor=none;" parent="1" vertex="1">
          <mxGeometry x="284" y="185" width="30" height="40" as="geometry" />
        </mxCell>
        <mxCell id="Rax3kxEUYJWD1s0g4nNq-25" value="&lt;font face=&quot;Times New Roman&quot;&gt;&lt;span style=&quot;font-size: 20px;&quot;&gt;1&lt;/span&gt;&lt;/font&gt;" style="text;html=1;align=center;verticalAlign=middle;resizable=0;points=[];autosize=1;strokeColor=none;fillColor=none;" parent="1" vertex="1">
          <mxGeometry x="345" y="226" width="30" height="40" as="geometry" />
        </mxCell>
        <mxCell id="Rax3kxEUYJWD1s0g4nNq-26" value="&lt;font face=&quot;Times New Roman&quot;&gt;&lt;span style=&quot;font-size: 20px;&quot;&gt;2&lt;/span&gt;&lt;/font&gt;" style="text;html=1;align=center;verticalAlign=middle;resizable=0;points=[];autosize=1;strokeColor=none;fillColor=none;" parent="1" vertex="1">
          <mxGeometry x="106" y="105" width="30" height="40" as="geometry" />
        </mxCell>
        <mxCell id="2BUXaThUyLYa7moucHsJ-1" value="&lt;font style=&quot;font-size: 20px;&quot; face=&quot;Times New Roman&quot;&gt;A&lt;sub&gt;1&lt;/sub&gt;&lt;/font&gt;" style="text;html=1;align=center;verticalAlign=middle;resizable=0;points=[];autosize=1;strokeColor=none;fillColor=none;" vertex="1" parent="1">
          <mxGeometry x="480" y="40" width="50" height="40" as="geometry" />
        </mxCell>
        <mxCell id="2BUXaThUyLYa7moucHsJ-2" value="&lt;font face=&quot;Times New Roman&quot;&gt;&lt;span style=&quot;font-size: 20px;&quot;&gt;A&lt;sub&gt;2&lt;/sub&gt;&lt;/span&gt;&lt;/font&gt;" style="text;html=1;align=center;verticalAlign=middle;resizable=0;points=[];autosize=1;strokeColor=none;fillColor=none;" vertex="1" parent="1">
          <mxGeometry x="530" y="40" width="50" height="40" as="geometry" />
        </mxCell>
        <mxCell id="2BUXaThUyLYa7moucHsJ-3" value="&lt;font face=&quot;Times New Roman&quot;&gt;&lt;span style=&quot;font-size: 20px;&quot;&gt;B&lt;sub&gt;1&lt;/sub&gt;&lt;/span&gt;&lt;/font&gt;" style="text;html=1;align=center;verticalAlign=middle;resizable=0;points=[];autosize=1;strokeColor=none;fillColor=none;" vertex="1" parent="1">
          <mxGeometry x="630" y="40" width="50" height="40" as="geometry" />
        </mxCell>
        <mxCell id="2BUXaThUyLYa7moucHsJ-4" value="&lt;font face=&quot;Times New Roman&quot;&gt;&lt;span style=&quot;font-size: 20px;&quot;&gt;A&lt;sub&gt;3&lt;/sub&gt;&lt;/span&gt;&lt;/font&gt;" style="text;html=1;align=center;verticalAlign=middle;resizable=0;points=[];autosize=1;strokeColor=none;fillColor=none;" vertex="1" parent="1">
          <mxGeometry x="580" y="40" width="50" height="40" as="geometry" />
        </mxCell>
        <mxCell id="2BUXaThUyLYa7moucHsJ-5" value="&lt;font face=&quot;Times New Roman&quot;&gt;&lt;span style=&quot;font-size: 20px;&quot;&gt;B&lt;sub&gt;2&lt;/sub&gt;&lt;/span&gt;&lt;/font&gt;" style="text;html=1;align=center;verticalAlign=middle;resizable=0;points=[];autosize=1;strokeColor=none;fillColor=none;" vertex="1" parent="1">
          <mxGeometry x="680" y="40" width="50" height="40" as="geometry" />
        </mxCell>
        <mxCell id="2BUXaThUyLYa7moucHsJ-6" value="&lt;font face=&quot;Times New Roman&quot;&gt;&lt;span style=&quot;font-size: 20px;&quot;&gt;B&lt;sub&gt;3&lt;/sub&gt;&lt;/span&gt;&lt;/font&gt;" style="text;html=1;align=center;verticalAlign=middle;resizable=0;points=[];autosize=1;strokeColor=none;fillColor=none;" vertex="1" parent="1">
          <mxGeometry x="730" y="40" width="50" height="40" as="geometry" />
        </mxCell>
        <mxCell id="2BUXaThUyLYa7moucHsJ-7" value="&lt;font face=&quot;Times New Roman&quot;&gt;&lt;span style=&quot;font-size: 20px;&quot;&gt;0&lt;/span&gt;&lt;/font&gt;" style="text;html=1;align=center;verticalAlign=middle;resizable=0;points=[];autosize=1;strokeColor=none;fillColor=none;" vertex="1" parent="1">
          <mxGeometry x="490" y="80" width="30" height="40" as="geometry" />
        </mxCell>
        <mxCell id="2BUXaThUyLYa7moucHsJ-8" value="&lt;font face=&quot;Times New Roman&quot;&gt;&lt;span style=&quot;font-size: 20px;&quot;&gt;1&lt;/span&gt;&lt;/font&gt;" style="text;html=1;align=center;verticalAlign=middle;resizable=0;points=[];autosize=1;strokeColor=none;fillColor=none;" vertex="1" parent="1">
          <mxGeometry x="540" y="80" width="30" height="40" as="geometry" />
        </mxCell>
        <mxCell id="2BUXaThUyLYa7moucHsJ-9" value="&lt;font face=&quot;Times New Roman&quot;&gt;&lt;span style=&quot;font-size: 20px;&quot;&gt;2&lt;/span&gt;&lt;/font&gt;" style="text;html=1;align=center;verticalAlign=middle;resizable=0;points=[];autosize=1;strokeColor=none;fillColor=none;" vertex="1" parent="1">
          <mxGeometry x="640" y="80" width="30" height="40" as="geometry" />
        </mxCell>
        <mxCell id="2BUXaThUyLYa7moucHsJ-10" value="&lt;font face=&quot;Times New Roman&quot;&gt;&lt;span style=&quot;font-size: 20px;&quot;&gt;2&lt;/span&gt;&lt;/font&gt;" style="text;html=1;align=center;verticalAlign=middle;resizable=0;points=[];autosize=1;strokeColor=none;fillColor=none;" vertex="1" parent="1">
          <mxGeometry x="590" y="80" width="30" height="40" as="geometry" />
        </mxCell>
        <mxCell id="2BUXaThUyLYa7moucHsJ-11" value="&lt;font face=&quot;Times New Roman&quot;&gt;&lt;span style=&quot;font-size: 20px;&quot;&gt;3&lt;/span&gt;&lt;/font&gt;" style="text;html=1;align=center;verticalAlign=middle;resizable=0;points=[];autosize=1;strokeColor=none;fillColor=none;" vertex="1" parent="1">
          <mxGeometry x="690" y="80" width="30" height="40" as="geometry" />
        </mxCell>
        <mxCell id="2BUXaThUyLYa7moucHsJ-12" value="&lt;font face=&quot;Times New Roman&quot;&gt;&lt;span style=&quot;font-size: 20px;&quot;&gt;4&lt;/span&gt;&lt;/font&gt;" style="text;html=1;align=center;verticalAlign=middle;resizable=0;points=[];autosize=1;strokeColor=none;fillColor=none;" vertex="1" parent="1">
          <mxGeometry x="740" y="80" width="30" height="40" as="geometry" />
        </mxCell>
        <mxCell id="2BUXaThUyLYa7moucHsJ-13" value="&lt;font face=&quot;Times New Roman&quot;&gt;&lt;span style=&quot;font-size: 20px;&quot;&gt;1&lt;/span&gt;&lt;/font&gt;" style="text;html=1;align=center;verticalAlign=middle;resizable=0;points=[];autosize=1;strokeColor=none;fillColor=none;" vertex="1" parent="1">
          <mxGeometry x="490" y="120" width="30" height="40" as="geometry" />
        </mxCell>
        <mxCell id="2BUXaThUyLYa7moucHsJ-14" value="&lt;font face=&quot;Times New Roman&quot;&gt;&lt;span style=&quot;font-size: 20px;&quot;&gt;0&lt;/span&gt;&lt;/font&gt;" style="text;html=1;align=center;verticalAlign=middle;resizable=0;points=[];autosize=1;strokeColor=none;fillColor=none;" vertex="1" parent="1">
          <mxGeometry x="540" y="120" width="30" height="40" as="geometry" />
        </mxCell>
        <mxCell id="2BUXaThUyLYa7moucHsJ-15" value="&lt;font face=&quot;Times New Roman&quot;&gt;&lt;span style=&quot;font-size: 20px;&quot;&gt;3&lt;/span&gt;&lt;/font&gt;" style="text;html=1;align=center;verticalAlign=middle;resizable=0;points=[];autosize=1;strokeColor=none;fillColor=none;" vertex="1" parent="1">
          <mxGeometry x="640" y="120" width="30" height="40" as="geometry" />
        </mxCell>
        <mxCell id="2BUXaThUyLYa7moucHsJ-16" value="&lt;font face=&quot;Times New Roman&quot;&gt;&lt;span style=&quot;font-size: 20px;&quot;&gt;1&lt;/span&gt;&lt;/font&gt;" style="text;html=1;align=center;verticalAlign=middle;resizable=0;points=[];autosize=1;strokeColor=none;fillColor=none;" vertex="1" parent="1">
          <mxGeometry x="590" y="120" width="30" height="40" as="geometry" />
        </mxCell>
        <mxCell id="2BUXaThUyLYa7moucHsJ-17" value="&lt;font face=&quot;Times New Roman&quot;&gt;&lt;span style=&quot;font-size: 20px;&quot;&gt;2&lt;/span&gt;&lt;/font&gt;" style="text;html=1;align=center;verticalAlign=middle;resizable=0;points=[];autosize=1;strokeColor=none;fillColor=none;" vertex="1" parent="1">
          <mxGeometry x="690" y="120" width="30" height="40" as="geometry" />
        </mxCell>
        <mxCell id="2BUXaThUyLYa7moucHsJ-18" value="&lt;font face=&quot;Times New Roman&quot;&gt;&lt;span style=&quot;font-size: 20px;&quot;&gt;3&lt;/span&gt;&lt;/font&gt;" style="text;html=1;align=center;verticalAlign=middle;resizable=0;points=[];autosize=1;strokeColor=none;fillColor=none;" vertex="1" parent="1">
          <mxGeometry x="740" y="120" width="30" height="40" as="geometry" />
        </mxCell>
        <mxCell id="2BUXaThUyLYa7moucHsJ-19" value="&lt;font face=&quot;Times New Roman&quot;&gt;&lt;span style=&quot;font-size: 20px;&quot;&gt;2&lt;/span&gt;&lt;/font&gt;" style="text;html=1;align=center;verticalAlign=middle;resizable=0;points=[];autosize=1;strokeColor=none;fillColor=none;" vertex="1" parent="1">
          <mxGeometry x="490" y="160" width="30" height="40" as="geometry" />
        </mxCell>
        <mxCell id="2BUXaThUyLYa7moucHsJ-20" value="&lt;font face=&quot;Times New Roman&quot;&gt;&lt;span style=&quot;font-size: 20px;&quot;&gt;1&lt;/span&gt;&lt;/font&gt;" style="text;html=1;align=center;verticalAlign=middle;resizable=0;points=[];autosize=1;strokeColor=none;fillColor=none;" vertex="1" parent="1">
          <mxGeometry x="540" y="160" width="30" height="40" as="geometry" />
        </mxCell>
        <mxCell id="2BUXaThUyLYa7moucHsJ-21" value="&lt;font face=&quot;Times New Roman&quot;&gt;&lt;span style=&quot;font-size: 20px;&quot;&gt;4&lt;/span&gt;&lt;/font&gt;" style="text;html=1;align=center;verticalAlign=middle;resizable=0;points=[];autosize=1;strokeColor=none;fillColor=none;" vertex="1" parent="1">
          <mxGeometry x="640" y="160" width="30" height="40" as="geometry" />
        </mxCell>
        <mxCell id="2BUXaThUyLYa7moucHsJ-22" value="&lt;font face=&quot;Times New Roman&quot;&gt;&lt;span style=&quot;font-size: 20px;&quot;&gt;0&lt;/span&gt;&lt;/font&gt;" style="text;html=1;align=center;verticalAlign=middle;resizable=0;points=[];autosize=1;strokeColor=none;fillColor=none;" vertex="1" parent="1">
          <mxGeometry x="590" y="160" width="30" height="40" as="geometry" />
        </mxCell>
        <mxCell id="2BUXaThUyLYa7moucHsJ-23" value="&lt;font face=&quot;Times New Roman&quot;&gt;&lt;span style=&quot;font-size: 20px;&quot;&gt;1&lt;/span&gt;&lt;/font&gt;" style="text;html=1;align=center;verticalAlign=middle;resizable=0;points=[];autosize=1;strokeColor=none;fillColor=none;" vertex="1" parent="1">
          <mxGeometry x="690" y="160" width="30" height="40" as="geometry" />
        </mxCell>
        <mxCell id="2BUXaThUyLYa7moucHsJ-24" value="&lt;font face=&quot;Times New Roman&quot;&gt;&lt;span style=&quot;font-size: 20px;&quot;&gt;2&lt;/span&gt;&lt;/font&gt;" style="text;html=1;align=center;verticalAlign=middle;resizable=0;points=[];autosize=1;strokeColor=none;fillColor=none;" vertex="1" parent="1">
          <mxGeometry x="740" y="160" width="30" height="40" as="geometry" />
        </mxCell>
        <mxCell id="2BUXaThUyLYa7moucHsJ-25" value="&lt;font face=&quot;Times New Roman&quot;&gt;&lt;span style=&quot;font-size: 20px;&quot;&gt;2&lt;/span&gt;&lt;/font&gt;" style="text;html=1;align=center;verticalAlign=middle;resizable=0;points=[];autosize=1;strokeColor=none;fillColor=none;" vertex="1" parent="1">
          <mxGeometry x="490" y="200" width="30" height="40" as="geometry" />
        </mxCell>
        <mxCell id="2BUXaThUyLYa7moucHsJ-26" value="&lt;font face=&quot;Times New Roman&quot;&gt;&lt;span style=&quot;font-size: 20px;&quot;&gt;3&lt;/span&gt;&lt;/font&gt;" style="text;html=1;align=center;verticalAlign=middle;resizable=0;points=[];autosize=1;strokeColor=none;fillColor=none;" vertex="1" parent="1">
          <mxGeometry x="540" y="200" width="30" height="40" as="geometry" />
        </mxCell>
        <mxCell id="2BUXaThUyLYa7moucHsJ-27" value="&lt;font face=&quot;Times New Roman&quot;&gt;&lt;span style=&quot;font-size: 20px;&quot;&gt;0&lt;/span&gt;&lt;/font&gt;" style="text;html=1;align=center;verticalAlign=middle;resizable=0;points=[];autosize=1;strokeColor=none;fillColor=none;" vertex="1" parent="1">
          <mxGeometry x="640" y="200" width="30" height="40" as="geometry" />
        </mxCell>
        <mxCell id="2BUXaThUyLYa7moucHsJ-28" value="&lt;font face=&quot;Times New Roman&quot;&gt;&lt;span style=&quot;font-size: 20px;&quot;&gt;4&lt;/span&gt;&lt;/font&gt;" style="text;html=1;align=center;verticalAlign=middle;resizable=0;points=[];autosize=1;strokeColor=none;fillColor=none;" vertex="1" parent="1">
          <mxGeometry x="590" y="200" width="30" height="40" as="geometry" />
        </mxCell>
        <mxCell id="2BUXaThUyLYa7moucHsJ-29" value="&lt;font face=&quot;Times New Roman&quot;&gt;&lt;span style=&quot;font-size: 20px;&quot;&gt;5&lt;/span&gt;&lt;/font&gt;" style="text;html=1;align=center;verticalAlign=middle;resizable=0;points=[];autosize=1;strokeColor=none;fillColor=none;" vertex="1" parent="1">
          <mxGeometry x="690" y="200" width="30" height="40" as="geometry" />
        </mxCell>
        <mxCell id="2BUXaThUyLYa7moucHsJ-30" value="&lt;font face=&quot;Times New Roman&quot;&gt;&lt;span style=&quot;font-size: 20px;&quot;&gt;6&lt;/span&gt;&lt;/font&gt;" style="text;html=1;align=center;verticalAlign=middle;resizable=0;points=[];autosize=1;strokeColor=none;fillColor=none;" vertex="1" parent="1">
          <mxGeometry x="740" y="200" width="30" height="40" as="geometry" />
        </mxCell>
        <mxCell id="2BUXaThUyLYa7moucHsJ-31" value="&lt;font face=&quot;Times New Roman&quot;&gt;&lt;span style=&quot;font-size: 20px;&quot;&gt;3&lt;/span&gt;&lt;/font&gt;" style="text;html=1;align=center;verticalAlign=middle;resizable=0;points=[];autosize=1;strokeColor=none;fillColor=none;" vertex="1" parent="1">
          <mxGeometry x="490" y="240" width="30" height="40" as="geometry" />
        </mxCell>
        <mxCell id="2BUXaThUyLYa7moucHsJ-32" value="&lt;font face=&quot;Times New Roman&quot;&gt;&lt;span style=&quot;font-size: 20px;&quot;&gt;2&lt;/span&gt;&lt;/font&gt;" style="text;html=1;align=center;verticalAlign=middle;resizable=0;points=[];autosize=1;strokeColor=none;fillColor=none;" vertex="1" parent="1">
          <mxGeometry x="540" y="240" width="30" height="40" as="geometry" />
        </mxCell>
        <mxCell id="2BUXaThUyLYa7moucHsJ-33" value="&lt;font face=&quot;Times New Roman&quot;&gt;&lt;span style=&quot;font-size: 20px;&quot;&gt;5&lt;/span&gt;&lt;/font&gt;" style="text;html=1;align=center;verticalAlign=middle;resizable=0;points=[];autosize=1;strokeColor=none;fillColor=none;" vertex="1" parent="1">
          <mxGeometry x="640" y="240" width="30" height="40" as="geometry" />
        </mxCell>
        <mxCell id="2BUXaThUyLYa7moucHsJ-34" value="&lt;font face=&quot;Times New Roman&quot;&gt;&lt;span style=&quot;font-size: 20px;&quot;&gt;1&lt;/span&gt;&lt;/font&gt;" style="text;html=1;align=center;verticalAlign=middle;resizable=0;points=[];autosize=1;strokeColor=none;fillColor=none;" vertex="1" parent="1">
          <mxGeometry x="590" y="240" width="30" height="40" as="geometry" />
        </mxCell>
        <mxCell id="2BUXaThUyLYa7moucHsJ-35" value="&lt;font face=&quot;Times New Roman&quot;&gt;&lt;span style=&quot;font-size: 20px;&quot;&gt;0&lt;/span&gt;&lt;/font&gt;" style="text;html=1;align=center;verticalAlign=middle;resizable=0;points=[];autosize=1;strokeColor=none;fillColor=none;" vertex="1" parent="1">
          <mxGeometry x="690" y="240" width="30" height="40" as="geometry" />
        </mxCell>
        <mxCell id="2BUXaThUyLYa7moucHsJ-36" value="&lt;font face=&quot;Times New Roman&quot;&gt;&lt;span style=&quot;font-size: 20px;&quot;&gt;1&lt;/span&gt;&lt;/font&gt;" style="text;html=1;align=center;verticalAlign=middle;resizable=0;points=[];autosize=1;strokeColor=none;fillColor=none;" vertex="1" parent="1">
          <mxGeometry x="740" y="240" width="30" height="40" as="geometry" />
        </mxCell>
        <mxCell id="2BUXaThUyLYa7moucHsJ-37" value="&lt;font face=&quot;Times New Roman&quot;&gt;&lt;span style=&quot;font-size: 20px;&quot;&gt;4&lt;/span&gt;&lt;/font&gt;" style="text;html=1;align=center;verticalAlign=middle;resizable=0;points=[];autosize=1;strokeColor=none;fillColor=none;" vertex="1" parent="1">
          <mxGeometry x="490" y="280" width="30" height="40" as="geometry" />
        </mxCell>
        <mxCell id="2BUXaThUyLYa7moucHsJ-38" value="&lt;font face=&quot;Times New Roman&quot;&gt;&lt;span style=&quot;font-size: 20px;&quot;&gt;3&lt;/span&gt;&lt;/font&gt;" style="text;html=1;align=center;verticalAlign=middle;resizable=0;points=[];autosize=1;strokeColor=none;fillColor=none;" vertex="1" parent="1">
          <mxGeometry x="540" y="280" width="30" height="40" as="geometry" />
        </mxCell>
        <mxCell id="2BUXaThUyLYa7moucHsJ-39" value="&lt;font face=&quot;Times New Roman&quot;&gt;&lt;span style=&quot;font-size: 20px;&quot;&gt;6&lt;/span&gt;&lt;/font&gt;" style="text;html=1;align=center;verticalAlign=middle;resizable=0;points=[];autosize=1;strokeColor=none;fillColor=none;" vertex="1" parent="1">
          <mxGeometry x="640" y="280" width="30" height="40" as="geometry" />
        </mxCell>
        <mxCell id="2BUXaThUyLYa7moucHsJ-40" value="&lt;font face=&quot;Times New Roman&quot;&gt;&lt;span style=&quot;font-size: 20px;&quot;&gt;2&lt;/span&gt;&lt;/font&gt;" style="text;html=1;align=center;verticalAlign=middle;resizable=0;points=[];autosize=1;strokeColor=none;fillColor=none;" vertex="1" parent="1">
          <mxGeometry x="590" y="280" width="30" height="40" as="geometry" />
        </mxCell>
        <mxCell id="2BUXaThUyLYa7moucHsJ-41" value="&lt;font face=&quot;Times New Roman&quot;&gt;&lt;span style=&quot;font-size: 20px;&quot;&gt;1&lt;/span&gt;&lt;/font&gt;" style="text;html=1;align=center;verticalAlign=middle;resizable=0;points=[];autosize=1;strokeColor=none;fillColor=none;" vertex="1" parent="1">
          <mxGeometry x="690" y="280" width="30" height="40" as="geometry" />
        </mxCell>
        <mxCell id="2BUXaThUyLYa7moucHsJ-42" value="&lt;font face=&quot;Times New Roman&quot;&gt;&lt;span style=&quot;font-size: 20px;&quot;&gt;0&lt;/span&gt;&lt;/font&gt;" style="text;html=1;align=center;verticalAlign=middle;resizable=0;points=[];autosize=1;strokeColor=none;fillColor=none;" vertex="1" parent="1">
          <mxGeometry x="740" y="280" width="30" height="40" as="geometry" />
        </mxCell>
        <mxCell id="2BUXaThUyLYa7moucHsJ-43" value="&lt;font style=&quot;font-size: 20px;&quot; face=&quot;Times New Roman&quot;&gt;A&lt;sub&gt;1&lt;/sub&gt;&lt;/font&gt;" style="text;html=1;align=center;verticalAlign=middle;resizable=0;points=[];autosize=1;strokeColor=none;fillColor=none;" vertex="1" parent="1">
          <mxGeometry x="430" y="80" width="50" height="40" as="geometry" />
        </mxCell>
        <mxCell id="2BUXaThUyLYa7moucHsJ-44" value="&lt;font face=&quot;Times New Roman&quot;&gt;&lt;span style=&quot;font-size: 20px;&quot;&gt;A&lt;sub&gt;2&lt;/sub&gt;&lt;/span&gt;&lt;/font&gt;" style="text;html=1;align=center;verticalAlign=middle;resizable=0;points=[];autosize=1;strokeColor=none;fillColor=none;" vertex="1" parent="1">
          <mxGeometry x="430" y="120" width="50" height="40" as="geometry" />
        </mxCell>
        <mxCell id="2BUXaThUyLYa7moucHsJ-45" value="&lt;font face=&quot;Times New Roman&quot;&gt;&lt;span style=&quot;font-size: 20px;&quot;&gt;A&lt;sub&gt;3&lt;/sub&gt;&lt;/span&gt;&lt;/font&gt;" style="text;html=1;align=center;verticalAlign=middle;resizable=0;points=[];autosize=1;strokeColor=none;fillColor=none;" vertex="1" parent="1">
          <mxGeometry x="430" y="160" width="50" height="40" as="geometry" />
        </mxCell>
        <mxCell id="2BUXaThUyLYa7moucHsJ-46" value="&lt;font face=&quot;Times New Roman&quot;&gt;&lt;span style=&quot;font-size: 20px;&quot;&gt;B&lt;sub&gt;1&lt;/sub&gt;&lt;/span&gt;&lt;/font&gt;" style="text;html=1;align=center;verticalAlign=middle;resizable=0;points=[];autosize=1;strokeColor=none;fillColor=none;" vertex="1" parent="1">
          <mxGeometry x="430" y="200" width="50" height="40" as="geometry" />
        </mxCell>
        <mxCell id="2BUXaThUyLYa7moucHsJ-47" value="&lt;font face=&quot;Times New Roman&quot;&gt;&lt;span style=&quot;font-size: 20px;&quot;&gt;B&lt;sub&gt;2&lt;/sub&gt;&lt;/span&gt;&lt;/font&gt;" style="text;html=1;align=center;verticalAlign=middle;resizable=0;points=[];autosize=1;strokeColor=none;fillColor=none;" vertex="1" parent="1">
          <mxGeometry x="430" y="240" width="50" height="40" as="geometry" />
        </mxCell>
        <mxCell id="2BUXaThUyLYa7moucHsJ-48" value="&lt;font face=&quot;Times New Roman&quot;&gt;&lt;span style=&quot;font-size: 20px;&quot;&gt;B&lt;sub&gt;3&lt;/sub&gt;&lt;/span&gt;&lt;/font&gt;" style="text;html=1;align=center;verticalAlign=middle;resizable=0;points=[];autosize=1;strokeColor=none;fillColor=none;" vertex="1" parent="1">
          <mxGeometry x="430" y="280" width="50" height="40" as="geometry" />
        </mxCell>
        <mxCell id="2BUXaThUyLYa7moucHsJ-49" value="" style="line;strokeWidth=2;direction=south;html=1;" vertex="1" parent="1">
          <mxGeometry x="476" y="40" width="10" height="280" as="geometry" />
        </mxCell>
        <mxCell id="2BUXaThUyLYa7moucHsJ-50" value="" style="line;strokeWidth=2;html=1;" vertex="1" parent="1">
          <mxGeometry x="440" y="76" width="340" height="10" as="geometry" />
        </mxCell>
        <mxCell id="2BUXaThUyLYa7moucHsJ-51" value="&lt;font face=&quot;Times New Roman&quot;&gt;&lt;span style=&quot;font-size: 20px;&quot;&gt;(a)&lt;/span&gt;&lt;/font&gt;" style="text;html=1;align=center;verticalAlign=middle;resizable=0;points=[];autosize=1;strokeColor=none;fillColor=none;" vertex="1" parent="1">
          <mxGeometry x="215" y="319" width="50" height="40" as="geometry" />
        </mxCell>
        <mxCell id="2BUXaThUyLYa7moucHsJ-52" value="&lt;font face=&quot;Times New Roman&quot;&gt;&lt;span style=&quot;font-size: 20px;&quot;&gt;(b)&lt;/span&gt;&lt;/font&gt;" style="text;html=1;align=center;verticalAlign=middle;resizable=0;points=[];autosize=1;strokeColor=none;fillColor=none;" vertex="1" parent="1">
          <mxGeometry x="604" y="320" width="50" height="40" as="geometry" />
        </mxCell>
      </root>
    </mxGraphModel>
  </diagram>
</mxfile>
